<svg width="28" height="28" viewBox="0 0 28 28" fill="none" xmlns="http://www.w3.org/2000/svg">
<g id="heart">
<path id="Vector" fill-rule="evenodd" clip-rule="evenodd" d="M22.262 14.626V14.6229C22.7615 14.1003 23.1543 13.4847 23.418 12.8107C23.697 12.0976 23.8254 11.3346 23.7952 10.5695C23.765 9.80439 23.5768 9.05382 23.2424 8.36499C22.9081 7.67616 22.4348 7.06397 21.8524 6.56691C21.27 6.06986 20.591 5.69869 19.8582 5.47676C19.1253 5.25483 18.3545 5.18694 17.5942 5.27735C16.8339 5.36777 16.1005 5.61453 15.4401 6.00212C14.8934 6.32303 14.4065 6.73474 14 7.21867C13.5935 6.73474 13.1066 6.32303 12.5599 6.00212C11.8995 5.61453 11.1661 5.36777 10.4058 5.27735C9.64545 5.18694 8.87463 5.25483 8.14181 5.47676C7.40899 5.69869 6.73002 6.06986 6.14759 6.56691C5.56517 7.06397 5.0919 7.67616 4.75754 8.36499C4.42319 9.05382 4.23498 9.80439 4.20476 10.5695C4.17454 11.3346 4.30296 12.0976 4.58195 12.8107C4.86093 13.5238 5.28446 14.1714 5.82587 14.7128L14 22.8859L22.262 14.626Z" fill="#BB8C5F"/>
</g>
</svg>
