<svg width="28" height="28" viewBox="0 0 28 28" fill="none" xmlns="http://www.w3.org/2000/svg">
<g id="mdi-light:heart">
<g id="Vector">
<path d="M6.74399 13.7907C6.31564 13.3622 5.98384 12.8471 5.77086 12.28C5.55787 11.7128 5.46861 11.1066 5.50907 10.5021C5.54952 9.89759 5.71875 9.30872 6.00542 8.77497C6.29208 8.24122 6.68955 7.77493 7.17118 7.40737C7.6528 7.0398 8.20744 6.77946 8.79792 6.6438C9.38839 6.50813 10.001 6.50028 10.5948 6.62077C11.1886 6.74126 11.7497 6.98731 12.2406 7.34241C12.7315 7.69751 13.1407 8.15347 13.441 8.67969H14.559C14.8592 8.15347 15.2685 7.69751 15.7594 7.34241C16.2503 6.98731 16.8114 6.74126 17.4052 6.62077C17.9989 6.50028 18.6116 6.50813 19.2021 6.6438C19.7925 6.77946 20.3472 7.0398 20.8288 7.40737C21.3104 7.77493 21.7079 8.24122 21.9946 8.77497C22.2812 9.30872 22.4505 9.89759 22.4909 10.5021C22.5314 11.1066 22.4421 11.7128 22.2291 12.28C22.0161 12.8471 21.6843 13.3622 21.256 13.7907L14 21.0487L6.74399 13.7917V13.7907ZM21.962 14.5007C22.4741 13.9885 22.8747 13.3759 23.1386 12.7014C23.4025 12.0269 23.524 11.3051 23.4954 10.5813C23.4669 9.85758 23.2888 9.14759 22.9725 8.496C22.6563 7.8444 22.2086 7.2653 21.6576 6.79511C21.1067 6.32492 20.4644 5.97382 19.7712 5.76389C19.078 5.55395 18.3488 5.48973 17.6296 5.57525C16.9104 5.66078 16.2166 5.8942 15.592 6.26085C14.9673 6.62749 14.4253 7.11942 14 7.70569C13.5747 7.11942 13.0326 6.62749 12.408 6.26085C11.7833 5.8942 11.0896 5.66078 10.3704 5.57525C9.65113 5.48973 8.92198 5.55395 8.22877 5.76389C7.53556 5.97382 6.89328 6.32492 6.34234 6.79511C5.7914 7.2653 5.34371 7.8444 5.02743 8.496C4.71115 9.14759 4.53312 9.85758 4.50453 10.5813C4.47594 11.3051 4.59742 12.0269 4.86133 12.7014C5.12523 13.3759 5.52585 13.9885 6.03799 14.5007L14 22.4617L21.962 14.5017V14.5007Z" fill="#FAF6F2"/>
<path fill-rule="evenodd" clip-rule="evenodd" d="M7.04399 13.6674L14 20.6244L21.0438 13.5786L21.256 13.7907L14 21.0487L6.74399 13.7917V13.7907C6.31564 13.3622 5.98384 12.8471 5.77086 12.28C5.55787 11.7128 5.46861 11.1066 5.50907 10.5021C5.54952 9.89759 5.71875 9.30872 6.00542 8.77497C6.29208 8.24122 6.68955 7.77493 7.17118 7.40737C7.6528 7.0398 8.20744 6.77946 8.79792 6.6438C9.38839 6.50813 10.001 6.50028 10.5948 6.62077C11.1886 6.74126 11.7497 6.98731 12.2406 7.34241C12.7315 7.69751 13.1407 8.15347 13.441 8.67969H14.559C14.8592 8.15347 15.2685 7.69751 15.7594 7.34241C16.2503 6.98731 16.8114 6.74126 17.4052 6.62077C17.9989 6.50028 18.6116 6.50813 19.2021 6.6438C19.7925 6.77946 20.3472 7.0398 20.8288 7.40737C21.3104 7.77493 21.7079 8.24122 21.9946 8.77497C22.2812 9.30872 22.4505 9.89759 22.4909 10.5021C22.5314 11.1066 22.4421 11.7128 22.2291 12.28C22.0161 12.8471 21.6843 13.3622 21.256 13.7907L21.0438 13.5786C21.4419 13.1804 21.7503 12.7016 21.9483 12.1745C22.1462 11.6473 22.2292 11.084 22.1916 10.5221C22.154 9.96029 21.9967 9.41299 21.7303 8.91692C21.4638 8.42084 21.0944 7.98747 20.6468 7.64585C20.1992 7.30423 19.6837 7.06227 19.1349 6.93618C18.5861 6.81009 18.0167 6.8028 17.4648 6.91478C16.913 7.02677 16.3915 7.25544 15.9352 7.58548C15.479 7.91552 15.0986 8.33928 14.8196 8.82836L14.7332 8.97969H13.2668L13.1804 8.82836C12.9014 8.33928 12.521 7.91552 12.0647 7.58548C11.6085 7.25544 11.087 7.02677 10.5351 6.91478C9.98329 6.8028 9.41389 6.81009 8.86509 6.93618C8.3163 7.06227 7.80081 7.30423 7.35318 7.64585C6.90556 7.98747 6.53614 8.42084 6.26971 8.91692C6.00328 9.41299 5.846 9.96029 5.8084 10.5221C5.7708 11.084 5.85375 11.6473 6.05171 12.1745C6.24966 12.7016 6.55803 13.1804 6.95615 13.5786L7.04399 13.6674ZM6.03799 14.5007C5.52585 13.9885 5.12523 13.3759 4.86133 12.7014C4.59742 12.0269 4.47594 11.3051 4.50453 10.5813C4.53312 9.85758 4.71115 9.14759 5.02743 8.496C5.34371 7.8444 5.7914 7.2653 6.34234 6.79511C6.89328 6.32492 7.53556 5.97382 8.22877 5.76389C8.92198 5.55395 9.65113 5.48973 10.3704 5.57525C11.0896 5.66078 11.7833 5.8942 12.408 6.26085C12.9428 6.57477 13.4171 6.98054 13.8094 7.45873C13.8753 7.53904 13.9388 7.62139 14 7.70569C14.0611 7.62139 14.1247 7.53904 14.1906 7.45873C14.5829 6.98054 15.0571 6.57477 15.592 6.26085C16.2166 5.8942 16.9104 5.66078 17.6296 5.57525C18.3488 5.48973 19.078 5.55395 19.7712 5.76389C20.4644 5.97382 21.1067 6.32492 21.6576 6.79511C22.2086 7.2653 22.6563 7.8444 22.9725 8.496C23.2888 9.14759 23.4669 9.85758 23.4954 10.5813C23.524 11.3051 23.4025 12.0269 23.1386 12.7014C22.8747 13.3759 22.4741 13.9885 21.962 14.5007V14.5017L14 22.4617L6.03799 14.5007ZM22.262 14.6229V14.626L14 22.8859L5.82587 14.7128C5.28446 14.1714 4.86093 13.5238 4.58195 12.8107C4.30296 12.0976 4.17454 11.3346 4.20476 10.5695C4.23498 9.80439 4.42319 9.05382 4.75755 8.36499C5.0919 7.67616 5.56517 7.06397 6.14759 6.56691C6.73002 6.06986 7.40899 5.69869 8.14181 5.47676C8.87463 5.25483 9.64545 5.18694 10.4058 5.27735C11.1661 5.36777 11.8995 5.61453 12.5599 6.00212C13.1066 6.32303 13.5935 6.73474 14 7.21867C14.4065 6.73474 14.8934 6.32303 15.4401 6.00212C16.1005 5.61453 16.8339 5.36777 17.5942 5.27735C18.3545 5.18694 19.1253 5.25483 19.8582 5.47676C20.591 5.69869 21.27 6.06986 21.8524 6.56691C22.4348 7.06397 22.9081 7.67616 23.2424 8.36499C23.5768 9.05382 23.765 9.80439 23.7952 10.5695C23.8254 11.3346 23.697 12.0976 23.418 12.8107C23.1543 13.4847 22.7615 14.1003 22.262 14.6229Z" fill="#FAF6F2"/>
</g>
</g>
</svg>
