<svg width="28" height="28" viewBox="0 0 28 28" fill="none" xmlns="http://www.w3.org/2000/svg">
<g id="heart">
<path id="Vector" fill-rule="evenodd" clip-rule="evenodd" d="M22.262 14.626V14.6229C22.7615 14.1003 23.1543 13.4847 23.418 12.8107C23.697 12.0976 23.8254 11.3346 23.7952 10.5695C23.765 9.80439 23.5768 9.05382 23.2424 8.36499C22.9081 7.67616 22.4348 7.06397 21.8524 6.56691C21.27 6.06986 20.591 5.69869 19.8582 5.47676C19.1254 5.25483 18.3545 5.18694 17.5942 5.27735C16.8339 5.36777 16.1005 5.61453 15.4401 6.00212C14.8934 6.32303 14.4065 6.73474 14 7.21867C13.5935 6.73474 13.1066 6.32303 12.5599 6.00212C11.8995 5.61453 11.1661 5.36777 10.4058 5.27735C9.64547 5.18694 8.87465 5.25483 8.14183 5.47676C7.40901 5.69869 6.73003 6.06986 6.14761 6.56691C5.56519 7.06397 5.09192 7.67616 4.75756 8.36499C4.4232 9.05382 4.235 9.80439 4.20478 10.5695C4.17456 11.3346 4.30298 12.0976 4.58196 12.8107C4.86095 13.5238 5.28448 14.1714 5.82588 14.7128L14 22.8859L22.262 14.626ZM7.044 13.6674L14 20.6244L21.0438 13.5786C21.442 13.1804 21.7503 12.7016 21.9483 12.1745C22.1462 11.6473 22.2292 11.084 22.1916 10.5221C22.154 9.96029 21.9967 9.41299 21.7303 8.91692C21.4638 8.42084 21.0944 7.98747 20.6468 7.64585C20.1992 7.30423 19.6837 7.06227 19.1349 6.93618C18.5861 6.81009 18.0167 6.8028 17.4649 6.91478C16.913 7.02677 16.3915 7.25544 15.9353 7.58548C15.479 7.91552 15.0986 8.33928 14.8196 8.82836L14.7332 8.97969H13.2668L13.1804 8.82836C12.9014 8.33928 12.521 7.91552 12.0648 7.58548C11.6085 7.25544 11.087 7.02677 10.5352 6.91478C9.98331 6.8028 9.4139 6.81009 8.86511 6.93618C8.31631 7.06227 7.80082 7.30423 7.3532 7.64585C6.90557 7.98747 6.53616 8.42084 6.26973 8.91692C6.0033 9.41299 5.84601 9.96029 5.80841 10.5221C5.77081 11.084 5.85377 11.6473 6.05172 12.1745C6.24967 12.7016 6.55805 13.1804 6.95616 13.5786L7.044 13.6674Z" fill="#524336"/>
</g>
</svg>
